<svg id="Layer_1" data-name="Layer 1" xmlns="http://www.w3.org/2000/svg" viewBox="0 0 1920 1080"><defs><style>.cls-1,.cls-2{fill:#28648a;}.cls-2{fill-rule:evenodd;}</style></defs><path class="cls-1" d="M211.58,668Q203,659.23,203,644.4V394.74q3.69-.93,11.81-2.32a94,94,0,0,1,16-1.39q16.68,0,24.55,6t7.87,22.24v208h119a56.68,56.68,0,0,1,4.63,10,39.19,39.19,0,0,1,2.31,13.67q0,12.5-5.79,19.22t-16,6.72H235Q220.14,676.83,211.58,668Z"/><path class="cls-1" d="M433.68,458.19c2.46-.61,6.09-1.39,10.88-2.31a81.37,81.37,0,0,1,15.52-1.39q16.67,0,24.32,6T492,481.82V675.44c-2.48.61-6.1,1.39-10.89,2.31a81.41,81.41,0,0,1-15.51,1.39q-16.68,0-24.32-6t-7.64-21.31Z"/><path class="cls-1" d="M686.81,505.44q-11.35-9.26-30.8-9.26a89.94,89.94,0,0,0-24.78,3.24,79.33,79.33,0,0,0-19.69,8.34V675.44c-2.78.61-6.48,1.39-11.12,2.31a80.4,80.4,0,0,1-15.74,1.39q-16.23,0-24.09-6t-7.88-21.31V503.12q0-11.12,4.64-18.06t14.36-13.43q13.42-9.27,35.66-15.52t49.1-6.25q47.7,0,73.88,21.07t26.17,61.84V675.44c-2.47.61-6.1,1.39-10.88,2.31a81.44,81.44,0,0,1-15.52,1.39q-16.68,0-24.32-6t-7.64-21.31V534.62Q698.16,514.72,686.81,505.44Z"/><path class="cls-1" d="M864,677.75a80.51,80.51,0,0,1-15.75,1.39q-16.22,0-24.09-6t-7.87-21.31v-277a59.53,59.53,0,0,1,10.88-2.55,101.14,101.14,0,0,1,16-1.16q16.22,0,24.09,6t7.88,21.31V542L965,452.64q17.6,0,28.25,7.87t10.66,19.92A27.68,27.68,0,0,1,997.15,499q-6.72,7.88-21.08,19.91l-50,43.54,88.47,82.92q-1.86,16.21-9.73,25.24t-22.7,9a34.56,34.56,0,0,1-18.76-5.09q-8.1-5.1-19.68-18.07l-68.55-76v95C872.32,676.05,868.61,676.83,864,677.75Z"/><path class="cls-1" d="M1354.65,620.16q11.88-14.64,24-28.82t24.48-28.82q-17.4-20.58-33.17-40t-32.25-40q2.74-13.28,10.75-21.28a27,27,0,0,1,19.9-8q11.43,0,17.84,5.49a107,107,0,0,1,14.18,15.55q9.15,12.81,19,26.53t20.35,27.45q14.64-19.22,28.14-37.05t27.67-37.51a20.27,20.27,0,0,1,3.66-.46h3.21q15.54,0,24.7,6.86t9.15,17.84a31,31,0,0,1-3.89,15.55q-3.9,6.87-13.95,18.3L1474,563.44q16.47,21.94,32.94,42.77t32.94,42.31q-1.85,13.28-10.07,21a28.21,28.21,0,0,1-20.13,7.78q-12.81-.47-20.58-7.32a102.79,102.79,0,0,1-15.55-17.84q-9.16-12.79-18.76-26.07t-18.76-26.54q-14.17,19.21-27.9,38.43t-27,38.43H1373q-16.93,0-25.85-7.32t-8.92-17.84a25.92,25.92,0,0,1,3.66-13.5A170,170,0,0,1,1354.65,620.16Z"/><path class="cls-1" d="M1648.56,627q8.93,6.42,24.93,6.41a70.69,70.69,0,0,0,15.78-1.83,84.48,84.48,0,0,0,14.41-4.58,32.31,32.31,0,0,1,6.18,8.92,27.9,27.9,0,0,1,2.51,12.12q0,13.73-12.35,22.65t-39.8,8.92q-36.13,0-57-16.24t-20.81-53.75v-210q3.64-.92,10.75-2.29a80.16,80.16,0,0,1,15.32-1.37q16,0,23.56,5.94t7.55,21.05v38h67.24a41.24,41.24,0,0,1,4.12,9.61,43.4,43.4,0,0,1,1.83,12.81q0,11.89-5.49,17.38t-14.64,5.49h-53.06V606Q1639.64,620.62,1648.56,627Z"/><path class="cls-1" d="M1279.19,627.21l-20.65.12c.91.73,1.78,1.51,2.62,2.33a34.07,34.07,0,0,1,6.4,8.74l11.7-.06a15,15,0,0,1,.18,30.09l-22.9.14A15.06,15.06,0,0,1,1242.45,648a7.5,7.5,0,0,0-5-1.88l-6.1,0a26.18,26.18,0,0,0,25.27,33.55l22.91-.14a26.17,26.17,0,0,0-.32-52.34Z"/><path class="cls-1" d="M1223.69,638.66l13.7-.08a15.06,15.06,0,0,1,14.09,20.59,7.43,7.43,0,0,0,5,1.88l6.09,0a26.18,26.18,0,0,0-25.27-33.55l-22.9.14-.62,0h9.89Z"/><path class="cls-1" d="M1232.89,677.61a33.58,33.58,0,0,1-6.44-8.87l-2.76,0v11.13l11.66-.07c-.85-.7-1.67-1.43-2.46-2.21Z"/><path class="cls-1" d="M1188.4,653.93a26.17,26.17,0,0,1,25.4-26.31h-88.64q-10.12,0-17-6.12t-6.86-17.09V527.83a24.57,24.57,0,0,1,6.12-17q6.12-6.85,17.3-6.86h99a24.06,24.06,0,0,1,16.56,6.12q6.86,6.12,6.86,16.88a24.64,24.64,0,0,1-6.12,17q-6.12,6.85-17.3,6.85h-99v52.11h99q20.67,0,35.12-7.59a72.33,72.33,0,0,0,23.42-18.88,73.65,73.65,0,0,0,13-24.48,84.87,84.87,0,0,0,4-24.58q0-20.67-7.6-35.12a72.33,72.33,0,0,0-18.88-23.42,73.7,73.7,0,0,0-24.47-13,85,85,0,0,0-24.58-4h-99q-20.68,0-35.13,7.6a72.33,72.33,0,0,0-23.42,18.88,73.49,73.49,0,0,0-13,24.47,84.64,84.64,0,0,0-4,24.58v77q0,20.69,7.59,35.13A72.57,72.57,0,0,0,1075.68,663a73.44,73.44,0,0,0,24.48,13,84.54,84.54,0,0,0,24.58,4h99v-.05l-9,.05A26.17,26.17,0,0,1,1188.4,653.93Z"/><path class="cls-1" d="M1214.67,668.81a15,15,0,1,1-.18-30.09l9.2-.06v-11h-9.89a26.17,26.17,0,0,0,.93,52.32l9-.05V668.76Z"/><path class="cls-2" d="M448.25,381.68a24.37,24.37,0,0,0,0,48.74H470.5L469,442.08a.83.83,0,0,0,1.45.66l10.77-12.61h0c3.76-4.57,14.27-6.11,14.27-24.08,0-13.05-10.29-24.37-23.21-24.37Z"/></svg>